# xmcd
#
# Track frame offsets:
#	150
#	17147
#	30163
#	47002
#	64273
#	80456
#	94529
#	109567
#	129821
#	142787
#	160855
#	176417
#	192012
#	209073
#	226654
#	243303
#	259457
#	273997
#	291151
#	308423
#
# Disc length: 4343 seconds
#
# Revision: 1
# Processed by: cddbd v1.5.2PL0 Copyright (c) Steve Scherf et al.
# Submitted via: audiograbber 1.83.01
#
DISCID=fe10f514
DTITLE=Various Artist - Bravo Hits 38 CD 1
DYEAR=1900
DGENRE=
TTITLE0=Will Smith - 01 - Black suits comin'
TTITLE1=Jennifer Lopez - 02 - I'm gonna be alright
TTITLE2=Christina Millan - 03 - When you look at me
TTITLE3=Nelly - 04 - Hot in here
TTITLE4=Massive Töne - 05 - Cruisen
TTITLE5=P.O.D. - 06 - Boom
TTITLE6=Chad Kroeger - 07 - Hero
TTITLE7=Xavier Naidoo - 08 - Bevor Du gehst
TTITLE8=Groove Coverage - 09 - Moonlight shadow
TTITLE9=Tiziano Ferro - 10 - Perdono
TTITLE10=No Aangels - 11 - Something about us
TTITLE11=Jan Wayne - 12 - Only you
TTITLE12=Mark 'Oh - 13 - Let this party never end
TTITLE13=Mad'House - 14 - Like a virgin
TTITLE14=Aquagen - 15 - Summer is callling
TTITLE15=Right Said Fred - 16 - Stand up (For the champions)
TTITLE16=Bro'Sis - 17 - Heaven must be missing an angel
TTITLE17=Le Chant - 18 - Sei mit mir
TTITLE18=Yanou Pres. Do - 19 - On and on
TTITLE19=Blank and Jones - 20 - The deep end
EXTD=
EXTT0=
EXTT1=
EXTT2=
EXTT3=
EXTT4=
EXTT5=
EXTT6=
EXTT7=
EXTT8=
EXTT9=
EXTT10=
EXTT11=
EXTT12=
EXTT13=
EXTT14=
EXTT15=
EXTT16=
EXTT17=
EXTT18=
EXTT19=
PLAYORDER=
